<?xml version="1.0"?>

<svg version="1.0" xmlns="http://www.w3.org/2000/svg" width="256.000000pt" height="256.000000pt" viewBox="0 0 256.000000 256.000000" preserveAspectRatio="xMidYMid meet">
<metadata>
Created by potrace 1.11, written by Peter Selinger 2001-2013
</metadata>
<g transform="translate(0.000000,256.000000) scale(0.100000,-0.100000)" fill="#000000" stroke="none">
<path d="M882 2215 c-76 -36 -89 -52 -99 -125 -7 -49 64 -432 83 -446 13 -10&#xA;13 -12 -1 -17 -8 -4 -25 -26 -36 -51 -21 -43 -22 -46 -6 -108 9 -36 19 -72 23&#xA;-81 4 -11 1 -17 -9 -17 -8 0 -25 -8 -37 -18 l-22 -18 41 -139 c23 -77 43 -140&#xA;44 -141 1 -1 13 -7 26 -14 21 -11 26 -9 46 16 l22 27 16 -23 c9 -14 14 -33 11&#xA;-46 -4 -15 5 -38 28 -73 40 -61 80 -75 134 -46 42 22 52 73 31 160 -27 111&#xA;-40 131 -99 151 l-52 17 -23 -29 c-13 -16 -26 -42 -30 -57 -11 -52 -25 -8 -24&#xA;81 0 23 -4 42 -10 42 -6 0 -8 4 -5 9 3 5 -1 12 -10 15 -9 4 -14 9 -11 13 4 3&#xA;2 12 -5 20 -8 11 -7 12 6 7 9 -3 16 -1 16 6 0 6 6 8 13 5 6 -4 2 2 -10 12 -27&#xA;22 -54 124 -35 131 7 2 12 8 12 14 0 6 11 24 25 40 14 17 23 38 20 47 -4 12 3&#xA;16 30 18 38 2 39 -1 50 -79 5 -43 9 -48 31 -48 27 0 43 25 26 42 -12 12 -5 67&#xA;9 82 5 6 9 19 9 30 0 19 1 18 24 -3 27 -26 46 -21 46 12 0 18 2 19 10 7 8 -12&#xA;10 -9 10 13 0 19 -4 26 -12 21 -7 -4 -8 -3 -4 4 4 6 0 24 -7 39 -11 21 -13 46&#xA;-8 103 6 64 3 98 -25 233 -18 87 -36 161 -38 166 -5 8 -25 12 -121 26 -20 3&#xA;-53 -7 -103 -30z"></path>
<path d="M1503 2222 c-23 -10 -46 -22 -51 -27 -9 -10 -42 -325 -42 -393 0 -27&#xA;-3 -32 -17 -28 -10 3 -23 2 -30 -2 -9 -6 -53 -198 -53 -234 0 -24 12 3 25 54&#xA;l14 53 -6 -63 c-5 -57 -3 -65 18 -89 l24 -26 -29 19 c-29 18 -29 18 -18 -3 14&#xA;-26 43 -38 54 -21 5 9 8 7 9 -7 0 -16 4 -14 15 10 l15 30 -6 -30 -6 -30 32 32&#xA;c29 29 33 40 37 97 4 64 4 64 28 54 23 -11 33 -28 16 -28 -9 0 0 -110 11 -127&#xA;5 -7 4 -13 -2 -13 -5 0 -11 3 -14 8 -2 4 -1 0 1 -8 3 -8 5 -41 5 -74 1 -53 2&#xA;-57 15 -40 13 17 14 16 10 -14 -4 -24 -1 -32 9 -28 8 3 13 -2 13 -14 0 -25&#xA;-25 -118 -41 -152 -10 -24 -10 -31 6 -48 30 -34 74 -23 106 25 25 37 28 51 34&#xA;174 6 121 5 133 -10 127 -12 -4 -15 -1 -11 12 3 9 8 42 11 73 6 51 5 58 -15&#xA;72 -21 15 -21 15 29 42 28 16 53 35 55 44 3 9 17 101 32 206 24 169 26 198 15&#xA;264 -6 41 -16 78 -23 82 -13 8 -104 26 -173 33 -35 4 -63 0 -92 -12z m-133&#xA;-653 c0 -6 6 -9 14 -6 8 3 17 1 19 -6 5 -14 -32 -49 -44 -41 -12 7 -11 64 1&#xA;64 6 0 10 -5 10 -11z m71 -50 c-5 -13 -10 -19 -10 -12 -1 15 10 45 15 40 3 -2&#xA;0 -15 -5 -28z m133 -118 c-4 -23 -9 -40 -11 -37 -3 3 -2 23 2 46 4 23 9 39 11&#xA;37 3 -2 2 -23 -2 -46z"></path>
<path d="M481 2001 c-41 -17 -201 -138 -201 -153 0 -27 70 -320 83 -345 17&#xA;-31 17 -31 -11 -37 -15 -3 -51 -8 -79 -11 l-53 -7 -41 -76 -41 -77 43 -178&#xA;c43 -177 43 -177 81 -202 27 -18 49 -47 77 -103 33 -65 49 -85 94 -116 47 -32&#xA;58 -36 76 -27 16 9 21 9 21 0 0 -6 36 -71 80 -145 l81 -133 132 -74 c73 -41&#xA;149 -82 170 -90 l37 -16 36 72 c61 121 60 155 -20 393 l-66 199 -86 55 c-48&#xA;30 -94 54 -103 52 -9 -2 -53 -15 -99 -29 -46 -13 -85 -23 -87 -21 -2 2 -19 48&#xA;-38 103 -19 55 -55 148 -80 208 -26 59 -45 107 -43 107 2 0 28 -11 57 -24 104&#xA;-47 106 -46 172 41 49 66 58 82 53 108 -3 16 -17 113 -31 215 -20 148 -30 191&#xA;-47 215 -95 131 -89 128 -167 96z"></path>
<path d="M2043 1993 c-42 -4 -44 -6 -98 -97 -53 -89 -56 -98 -81 -241 l-27&#xA;-148 28 -99 28 -99 58 -30 c32 -16 68 -29 79 -29 11 0 20 -2 20 -4 0 -2 -16&#xA;-38 -34 -79 -49 -106 -79 -239 -66 -286 17 -62 11 -68 -14 -14 -26 54 -32 58&#xA;-112 68 -56 7 -219 -18 -242 -38 -8 -6 -44 -54 -81 -107 l-67 -95 -17 -125&#xA;c-14 -108 -15 -134 -3 -193 7 -38 20 -75 28 -84 11 -11 50 -18 133 -24 l117&#xA;-9 84 61 c46 33 90 67 98 74 8 8 31 105 52 215 23 117 41 191 44 178 5 -21 15&#xA;-24 95 -35 70 -9 93 -9 101 0 7 7 33 62 59 122 26 61 81 173 123 250 l75 139&#xA;-16 80 c-10 43 -22 85 -28 93 -16 18 -131 79 -145 75 -7 -1 0 46 19 132 l31&#xA;134 -51 109 -51 108 -48 1 c-27 1 -68 -1 -91 -3z"></path>
<path d="M1162 1535 c0 -16 2 -22 5 -12 2 9 2 23 0 30 -3 6 -5 -1 -5 -18z"></path>
<path d="M1182 1530 c0 -14 2 -19 5 -12 2 6 2 18 0 25 -3 6 -5 1 -5 -13z"></path>
<path d="M1373 1183 c-24 -8 -52 -27 -64 -44 -19 -27 -21 -41 -17 -139 2 -60&#xA;7 -112 11 -116 4 -4 39 -2 78 5 67 13 72 15 86 49 8 19 21 72 28 116 l13 81&#xA;-31 33 c-34 36 -43 37 -104 15z"></path>
</g>
</svg>