<?xml version="1.0" encoding="UTF-8"?>
<svg xmlns="http://www.w3.org/2000/svg" viewBox="0 0 512 512" width="512" height="512">
  <defs>
    <linearGradient id="hillGradient" x1="0%" y1="0%" x2="100%" y2="100%">
      <stop offset="0%" style="stop-color:#4a5568;stop-opacity:1" />
      <stop offset="100%" style="stop-color:#2d3748;stop-opacity:1" />
    </linearGradient>
  </defs>
  
  <!-- Hillfort silhouette -->
  <path d="M400,350 Q350,300 300,320 Q250,340 200,300 Q150,260 100,280 Q50,300 50,350 L50,450 L460,450 L460,350 Q450,320 400,350 Z" 
        fill="url(#hillGradient)" stroke="#2d3748" stroke-width="3"/>
  
  <!-- Archaeological dig lines -->
  <path d="M150,380 Q200,360 250,380 Q300,400 350,380 Q400,360 450,380" 
        fill="none" stroke="#e2e8f0" stroke-width="2" stroke-dasharray="10,5"/>
  
  <!-- Compass/tour icon -->
  <circle cx="256" cy="200" r="40" fill="#4a5568" />
  <path d="M256,160 L256,140 L270,160 L256,180 L242,160 Z" fill="#e2e8f0"/>
  <path d="M296,200 L316,200 L296,220 L276,200 Z" fill="#e2e8f0"/>
  <path d="M256,240 L256,260 L242,240 L256,220 L270,240 Z" fill="#e2e8f0"/>
  <path d="M216,200 L196,200 L216,180 L236,200 Z" fill="#e2e8f0"/>
  
  <!-- Text label -->
  <text x="256" y="480" font-family="Arial, sans-serif" font-size="24" font-weight="bold" 
        text-anchor="middle" fill="#4a5568">TOUR</text>
</svg>